# xmcd
#
# Track frame offsets:
# 150
# 16548
# 34705
# 49271
# 64172
# 85922
# 101946
# 116639
# 135431
# 158529
# 176320
# 192830
# 210298
# 227107
# 245464
# 258933
# 271552
# 288293
#
# Disc length: 4066 seconds
#
#
# Revision: 0
# Processed by: cddbd v1.5.2PL0 Copyright (c) Steve Scherf et al.
# Submitted via: FreeRIP 2.951 
#
DISCID=e30fe012
DTITLE=SELEÇAO SERTANEJA 2007 - SELEÇÃO SERTANEJA 2007
DYEAR=2007
DGENRE=SERTANEJA
TTITLE0=AMIGO APAIXONADO - VICTOR E LEO
TTITLE1=CREDENCIAL - RICK and RENNER
TTITLE2=LOCUTOR - NELSON E DAVI
TTITLE3=NÃO POSSO TER MEDO DE TENTAR - BRUNO and MARRONE
TTITLE4=FOI SÓ UM ENGANO - ZEZE DE CAMARO E LUCIANO
TTITLE5=ME APAIXONEI - CESAR MENOTTI E FABIANO
TTITLE6=FOI DEUS - EDSON E HUDSON
TTITLE7=NÃO PRECISO DE VOCE - EDUARDO COSTA
TTITLE8=QUEM AMA UMA VEZ NÃO DEIXA DE AMAR - GUILHERME E SANTIAGO
TTITLE9=IDAS E VOLTAS - LEONARDO
TTITLE10=VIDA DE CÃO - RIONEGRO and SOLIMÕES
TTITLE11=PORQUE CHORA A TARDE - EDSON E HUDSON
TTITLE12=MAIS UMA CHANCE - LEONARDO E CALYPSO
TTITLE13=NUNCA MAIS VOU FICAR SOZINHO - ZEZE DE CAMARGO E LUCIANO
TTITLE14=QUEM DIRIA HEIN - DANIEL
TTITLE15=QUEM DISSE ADEUS FOI VOCE - GUILHERME E SANTIAGO
TTITLE16=EU ME PERDI - MATOGROSSO E MATIAS
TTITLE17=A DOIS PASSOS DO PARAISO - ZÉ HENRIQUE E GABRIEL
EXTD=
EXTT0=
EXTT1=
EXTT2=
EXTT3=
EXTT4=
EXTT5=
EXTT6=
EXTT7=
EXTT8=
EXTT9=
EXTT10=
EXTT11=
EXTT12=
EXTT13=
EXTT14=
EXTT15=
EXTT16=
EXTT17=
PLAYORDER=
